<?xml version="1.0" encoding="UTF-8"?>
<svg xmlns="http://www.w3.org/2000/svg" viewBox="0 0 1200 380" width="1200" height="380">
  <defs>
    <radialGradient id="glow" cx="50%" cy="50%" r="70%">
      <stop offset="0%"  stop-color="#f3f8f7"/>
      <stop offset="48%" stop-color="#fbfaf5"/>
      <stop offset="100%" stop-color="#ece8d8"/>
    </radialGradient>
  </defs>

  <rect width="1200" height="380" fill="#fbfaf5"/>
  <rect width="1200" height="380" fill="url(#glow)"/>

  <g opacity="0.5"><path d="M52.21 -169.63 A200 200 0 0 1 206.78 -80.39 L140.07 -36.23 A120 120 0 0 0 47.33 -89.78 Z" fill="#d5dfe0"/><path d="M218.99 -59.24 A200 200 0 0 1 218.99 119.24 L147.39 83.54 A120 120 0 0 0 147.39 -23.54 Z" fill="#d5dfe0"/><path d="M206.78 140.39 A200 200 0 0 1 52.21 229.63 L47.33 149.78 A120 120 0 0 0 140.07 96.23 Z" fill="#d5dfe0"/><path d="M27.79 229.63 A200 200 0 0 1 -126.78 140.39 L-60.07 96.23 A120 120 0 0 0 32.67 149.78 Z" fill="#d5dfe0"/><path d="M-138.99 119.24 A200 200 0 0 1 -138.99 -59.24 L-67.39 -23.54 A120 120 0 0 0 -67.39 83.54 Z" fill="#d5dfe0"/><path d="M-126.78 -80.39 A200 200 0 0 1 27.79 -169.63 L32.67 -89.78 A120 120 0 0 0 -60.07 -36.23 Z" fill="#d5dfe0"/><circle cx="40" cy="30" r="92.00" fill="none" stroke="#d5dfe0" stroke-width="9.00" stroke-opacity="0.55"/><circle cx="40" cy="30" r="68.00" fill="#d5dfe0"/><circle cx="40" cy="30" r="68.00" fill="none" stroke="#d5dfe0" stroke-width="9.00" stroke-opacity="0.7"/><circle cx="40" cy="30" r="26.00" fill="#d5dfe0"/></g>
  <g opacity="0.5"><path d="M1193.43 150.41 A220 220 0 0 1 1363.45 248.57 L1290.07 297.14 A132 132 0 0 0 1188.06 238.25 Z" fill="#d5dfe0"/><path d="M1376.89 271.84 A220 220 0 0 1 1376.89 468.16 L1298.13 428.90 A132 132 0 0 0 1298.13 311.10 Z" fill="#d5dfe0"/><path d="M1363.45 491.43 A220 220 0 0 1 1193.43 589.59 L1188.06 501.75 A132 132 0 0 0 1290.07 442.86 Z" fill="#d5dfe0"/><path d="M1166.57 589.59 A220 220 0 0 1 996.55 491.43 L1069.93 442.86 A132 132 0 0 0 1171.94 501.75 Z" fill="#d5dfe0"/><path d="M983.11 468.16 A220 220 0 0 1 983.11 271.84 L1061.87 311.10 A132 132 0 0 0 1061.87 428.90 Z" fill="#d5dfe0"/><path d="M996.55 248.57 A220 220 0 0 1 1166.57 150.41 L1171.94 238.25 A132 132 0 0 0 1069.93 297.14 Z" fill="#d5dfe0"/><circle cx="1180" cy="370" r="101.20" fill="none" stroke="#d5dfe0" stroke-width="9.90" stroke-opacity="0.55"/><circle cx="1180" cy="370" r="74.80" fill="#d5dfe0"/><circle cx="1180" cy="370" r="74.80" fill="none" stroke="#d5dfe0" stroke-width="9.90" stroke-opacity="0.7"/><circle cx="1180" cy="370" r="28.60" fill="#d5dfe0"/></g>

  <rect x="101.8" y="65.9" width="36.4" height="8.1" rx="4.1" fill="#47a5ae" opacity="0.85" transform="rotate(30 120 70)"/>
  <circle cx="70" cy="50" r="5" fill="#f48424" opacity="0.9"/>
  <path d="M 245 93 Q 249.76 105.24 262 110 Q 249.76 114.76 245 127 Q 240.24 114.76 228 110 Q 240.24 105.24 245 93 Z" fill="#3a8d96" opacity="0.85"/>
  <circle cx="60" cy="160" r="8" fill="none" stroke="#9ca3af" stroke-width="2" opacity="0.6"/>
  <circle cx="310" cy="55" r="4" fill="#f48424" opacity="0.75"/>
  <rect x="164.4" y="171.5" width="31.2" height="7.0" rx="3.5" fill="#f48424" opacity="0.7" transform="rotate(-20 180 175)"/>
  <circle cx="360" cy="130" r="3.5" fill="#47a5ae" opacity="0.8"/>
  <circle cx="45" cy="250" r="4" fill="#3a8d96" opacity="0.65"/>
  <path d="M 80 309 Q 83.08 316.92 91 320 Q 83.08 323.08 80 331 Q 76.92 323.08 69 320 Q 76.92 316.92 80 309 Z" fill="#f48424" opacity="0.55"/>
  <circle cx="160" cy="345" r="4" fill="#47a5ae" opacity="0.7"/>
  <path d="M 960 49 Q 965.88 64.12 981 70 Q 965.88 75.88 960 91 Q 954.12 75.88 939 70 Q 954.12 64.12 960 49 Z" fill="#f48424" opacity="0.9"/>
  <circle cx="1080" cy="130" r="5" fill="#47a5ae" opacity="0.85"/>
  <rect x="991.8" y="170.9" width="36.4" height="8.1" rx="4.1" fill="#3a8d96" opacity="0.8" transform="rotate(-38 1010 175)"/>
  <circle cx="1150" cy="50" r="7" fill="none" stroke="#9ca3af" stroke-width="2" opacity="0.55"/>
  <circle cx="885" cy="150" r="4" fill="#f48424" opacity="0.75"/>
  <rect x="1095.7" y="91.8" width="28.6" height="6.4" rx="3.2" fill="#47a5ae" opacity="0.7" transform="rotate(22 1110 95)"/>
  <circle cx="1155" cy="260" r="4" fill="#f48424" opacity="0.6"/>
  <path d="M 1115 319 Q 1118.08 326.92 1126 330 Q 1118.08 333.08 1115 341 Q 1111.92 333.08 1104 330 Q 1111.92 326.92 1115 319 Z" fill="#3a8d96" opacity="0.55"/>
  <circle cx="1040" cy="345" r="4" fill="#47a5ae" opacity="0.7"/>

  <text x="600" y="200"
        text-anchor="middle"
        font-family="Arial Black, Arial, 'Segoe UI', sans-serif"
        font-weight="900"
        font-size="100"
        letter-spacing="8"
        fill="#47a5ae">ATRI</text>

  <text x="600" y="245"
        text-anchor="middle"
        font-family="Arial, 'Segoe UI', sans-serif"
        font-weight="600"
        font-size="16"
        letter-spacing="3.5"
        fill="#656464">ASOCIACIÓN DE TÉCNICOS EN RADIACIONES E IMAGENOLOGÍA</text>
</svg>
